<svg width="11533" height="7430" viewBox="0 0 11533 7430" fill="none" xmlns="http://www.w3.org/2000/svg">
<path d="M2201.2 -0.000443727C2359.77 -0.000443727 2476.05 31.7137 2550.05 95.1419C2627.58 155.046 2652.24 264.284 2624.05 422.855L2470.77 1268.56H1836.49L1952.77 634.282H1767.77L1635.63 1374.28H1958.06C2116.63 1374.28 2232.91 1405.99 2306.91 1469.42C2384.44 1529.32 2409.1 1638.56 2380.91 1797.13L2169.48 2986.41C2141.29 3144.98 2077.87 3255.98 1979.2 3319.41C1884.06 3379.32 1757.2 3409.27 1598.63 3409.27H1138.78C980.205 3409.27 862.158 3379.32 784.635 3319.41C710.635 3255.98 687.73 3144.98 715.921 2986.41L863.92 2140.7H1498.2L1387.2 2774.99H1572.2L1709.63 2008.56H1387.2C1228.63 2008.56 1110.59 1978.61 1033.06 1918.7C959.062 1855.28 936.158 1744.28 964.348 1585.71L1170.49 422.855C1198.68 264.284 1260.35 155.046 1355.49 95.1419C1454.15 31.7137 1582.77 -0.000443727 1741.34 -0.000443727H2201.2ZM3135.86 634.282H2713L2824 -0.000443727H4303.99L4192.99 634.282H3770.14L3278.57 3409.27H2644.29L3135.86 634.282ZM4460.29 -0.000443727H5417C5575.57 -0.000443727 5691.86 31.7137 5765.86 95.1419C5843.38 155.046 5868.05 264.284 5839.86 422.855L5728.86 1041.28C5693.62 1252.71 5646.05 1405.99 5586.14 1501.13C5526.24 1592.75 5422.29 1638.56 5274.29 1638.56H5221.43L5216.15 1664.99H5269C5417 1664.99 5503.33 1716.09 5528 1818.28C5552.67 1920.47 5545.62 2077.27 5506.86 2288.7L5311.29 3409.27H4677.01L4930.72 1971.56H4745.72L4492.01 3409.27H3857.72L4460.29 -0.000443727ZM5041.72 1337.28L5168.57 634.282H4983.58L4856.72 1337.28H5041.72ZM6678.63 1178.71L6779.06 634.282H6594.06L6461.92 1384.85H7011.63L6895.34 2019.13H6345.63L6213.49 2774.99H6398.49L6498.92 2214.7H7133.2L6921.77 3409.27H5468.21L5996.78 422.855C6024.97 264.284 6086.63 155.046 6181.77 95.1419C6280.44 31.7137 6409.06 -0.000443727 6567.63 -0.000443727H7524.34L7312.91 1178.71H6678.63ZM7897.97 3409.27L8183.4 1797.13H7998.4L7712.97 3409.27H7078.69L7607.26 422.855C7635.45 264.284 7697.11 155.046 7792.26 95.1419C7890.92 31.7137 8019.54 -0.000443727 8178.11 -0.000443727H8637.97C8796.54 -0.000443727 8912.82 31.7137 8986.82 95.1419C9064.35 155.046 9089.01 264.284 9060.82 422.855L8532.25 3409.27H7897.97ZM8294.4 1162.85L8389.54 634.282H8204.54L8109.4 1162.85H8294.4ZM9809.74 -0.000443727C9915.45 -0.000443727 10005.3 1.76143 10079.3 5.28517C10156.8 8.80913 10216.7 21.1425 10259 42.2851C10304.8 63.4278 10334.8 98.6657 10348.9 147.999C10366.5 193.808 10366.5 260.76 10348.9 348.855L10338.3 401.712H10364.7L10375.3 348.855C10392.9 260.76 10415.8 193.808 10444 147.999C10475.7 98.6657 10518 63.4278 10570.9 42.2851C10623.7 21.1425 10687.2 8.80913 10761.2 5.28517C10838.7 1.76143 10930.3 -0.000443727 11036 -0.000443727H11067.7C11226.3 -0.000443727 11342.6 31.7137 11416.6 95.1419C11494.1 155.046 11518.8 264.284 11490.6 422.855L10962 3409.27H10327.7L10819.3 634.282H10634.3L10142.7 3409.27H9508.45L10000 634.282H9815.02L9323.45 3409.27H8689.17L9217.74 422.855C9245.93 264.284 9307.6 155.046 9402.74 95.1419C9501.41 31.7137 9630.02 -0.000443727 9788.6 -0.000443727H9809.74Z" fill="#FFFBF7"/>
<path d="M4643.15 3584.24H5599.86C5758.43 3584.24 5874.72 3615.96 5948.72 3679.38C6026.24 3739.29 6050.91 3848.53 6022.72 4007.1L5911.72 4625.52C5876.48 4836.95 5828.91 4990.23 5769 5085.38C5709.1 5177 5605.15 5222.8 5457.15 5222.8H5404.29L5399 5249.23H5451.86C5599.86 5249.23 5686.19 5300.33 5710.86 5402.52C5735.53 5504.71 5728.48 5661.52 5689.72 5872.94L5494.15 6993.51H4859.86L5113.58 5555.8H4928.58L4674.87 6993.51H4040.58L4643.15 3584.24ZM5224.58 4921.52L5351.43 4218.52H5166.43L5039.58 4921.52H5224.58ZM6470.35 6993.51L6755.77 5381.38H6570.78L6285.35 6993.51H5651.07L6179.63 4007.1C6207.82 3848.53 6269.49 3739.29 6364.63 3679.38C6463.3 3615.96 6591.92 3584.24 6750.49 3584.24H7210.34C7368.91 3584.24 7485.2 3615.96 7559.2 3679.38C7636.72 3739.29 7661.39 3848.53 7633.2 4007.1L7104.63 6993.51H6470.35ZM6866.77 4747.09L6961.92 4218.52H6776.92L6681.77 4747.09H6866.77ZM8820.83 3584.24C8979.4 3584.24 9095.68 3615.96 9169.68 3679.38C9247.2 3739.29 9271.87 3848.53 9243.68 4007.1L9090.4 4852.81H8456.11L8572.4 4218.52H8387.4L8006.83 6359.23H8191.83L8355.69 5444.8H8989.97L8789.11 6570.65C8760.92 6729.23 8697.49 6840.22 8598.83 6903.65C8503.68 6963.56 8376.83 6993.51 8218.26 6993.51H7758.4C7599.83 6993.51 7481.79 6963.56 7404.26 6903.65C7330.26 6840.22 7307.36 6729.23 7335.55 6570.65L7790.12 4007.1C7818.31 3848.53 7879.97 3739.29 7975.12 3679.38C8073.78 3615.96 8202.4 3584.24 8360.97 3584.24H8820.83ZM10082.5 4762.95L10182.9 4218.52H9997.88L9865.74 4969.09H10415.5L10299.2 5603.37H9749.46L9617.31 6359.23H9802.31L9902.74 5798.94H10537L10325.6 6993.51H8872.03L9400.6 4007.1C9428.79 3848.53 9490.46 3739.29 9585.6 3679.38C9684.27 3615.96 9812.88 3584.24 9971.45 3584.24H10928.2L10716.7 4762.95H10082.5Z" fill="#FFFBF7"/>
<path d="M3858.81 6993.41H8.48926L615.497 3582.61H4464.67L3858.81 6993.41Z" fill="url(#paint0_linear_5_53)"/>
<path d="M3858.81 6993.41H8.48926L12.7266 6969.6L3892.57 6803.34L3858.81 6993.41ZM3920.5 6646.11H70.2979L104.289 6455.11L3980.6 6307.73L3920.5 6646.11ZM4000.98 6193.04L151.896 6187.6L192.384 5960.09L4051.55 5908.33L4000.98 6193.04ZM4084.68 5721.82L235.272 5719.1L263.927 5558.09L4121.39 5515.15L4084.68 5721.82ZM4151.91 5343.35L302.627 5340.64L330.827 5182.18L4188.17 5139.24L4151.91 5343.35ZM4212.06 5004.73L370.878 4957.13L393.747 4828.62L4270.77 4674.21L4212.06 5004.73ZM4308.02 4464.49L466.162 4421.72L494.634 4261.74L4344.52 4259.02L4308.02 4464.49ZM4374.53 4090.06L532.798 4047.29L562.005 3883.18L4411.76 3880.46L4374.53 4090.06ZM4443.92 3699.44L603.87 3647.94L615.497 3582.61H4464.67L4443.92 3699.44Z" fill="url(#paint1_linear_5_53)"/>
<defs>
<linearGradient id="paint0_linear_5_53" x1="4178.06" y1="5872.49" x2="110.245" y2="5872.49" gradientUnits="userSpaceOnUse">
<stop stop-color="#E81717"/>
<stop offset="1" stop-color="#800D82"/>
</linearGradient>
<linearGradient id="paint1_linear_5_53" x1="3738.68" y1="5459.63" x2="-2018.79" y2="5459.63" gradientUnits="userSpaceOnUse">
<stop stop-color="#E3C60B"/>
<stop offset="1" stop-color="#E81717"/>
</linearGradient>
</defs>
</svg>
